<svg width="387" height="388" viewBox="0 0 387 388" fill="none" xmlns="http://www.w3.org/2000/svg">
<path d="M190.001 0L191.001 184.5L151.001 0H149.001L191.001 184.5L105.001 0H103.001L191.001 184.5L52.0006 0H50.0006L191.001 184.5L332.001 0H330.001L191.001 184.5L279.001 0H277.001L191.001 184.5L233.001 0H231.001L191.001 184.5L192.001 0H190.001Z" fill="url(#paint0_radial_507_159)"/>
<path d="M387 16.4581L214.999 171.499L387 20.102V16.4581Z" fill="url(#paint1_radial_507_159)"/>
<path d="M387 81.2808L232 168L387 83.2743V81.2808Z" fill="url(#paint2_radial_507_159)"/>
<path d="M387 131.183L232 187.999L387 175.042V174.045L232 187.999L387 132.18V131.183Z" fill="url(#paint3_radial_507_159)"/>
<path d="M387 213.941L232 195.5L387 214.938V213.941Z" fill="url(#paint4_radial_507_159)"/>
<path d="M387 255.333L232 203.5L387 256.33V255.333Z" fill="url(#paint5_radial_507_159)"/>
<path d="M387 304.717L232 217L387 306.711V304.717Z" fill="url(#paint6_radial_507_159)"/>
<path d="M387 368.341L215 217.001L387 371.995V368.341Z" fill="url(#paint7_radial_507_159)"/>
<path d="M333.001 388L191.001 203L49.1507 388H51.1346L191.001 203L102.739 388H104.734L191.001 203L148.346 388H150.33L191.001 203L190.003 388H191.998L191.001 203L231.001 388H233.001L191.001 203L277.501 388H279.501L191.001 203L331.001 388H333.001Z" fill="url(#paint8_radial_507_159)"/>
<path d="M0 368.278L170.001 214L0 364.572V368.278Z" fill="url(#paint9_radial_507_159)"/>
<path d="M0 20.314L170.001 174.5L0 24.0403V20.314Z" fill="url(#paint10_radial_507_159)"/>
<path d="M0.00050354 83.001L0.000519753 85.001L155.5 170L0.00050354 83.001Z" fill="url(#paint11_radial_507_159)"/>
<path d="M0.000516891 132L0.000500679 131L155.5 187.999L0.000516891 132Z" fill="url(#paint12_radial_507_159)"/>
<path d="M155.5 187.999L0.000513077 175L0.000497341 174L155.5 187.999Z" fill="url(#paint13_radial_507_159)"/>
<path d="M0.000512123 215L0.000495911 214L155.501 195.5L0.000512123 215Z" fill="url(#paint14_radial_507_159)"/>
<path d="M0.000495911 255.5L0.000512123 256.5L155.501 203.5L0.000495911 255.5Z" fill="url(#paint15_radial_507_159)"/>
<path d="M0.000512123 305L0.000495911 303L155.501 215L0.000512123 305Z" fill="url(#paint16_radial_507_159)"/>
<defs>
<radialGradient id="paint0_radial_507_159" cx="0" cy="0" r="1" gradientUnits="userSpaceOnUse" gradientTransform="translate(189.5 195) rotate(45) scale(269.408 275.772)">
<stop stop-color="white" stop-opacity="0"/>
<stop offset="0.493852" stop-color="white" stop-opacity="0.12"/>
<stop offset="1" stop-color="white"/>
</radialGradient>
<radialGradient id="paint1_radial_507_159" cx="0" cy="0" r="1" gradientUnits="userSpaceOnUse" gradientTransform="translate(189.5 195) rotate(45) scale(269.408 275.772)">
<stop stop-color="white" stop-opacity="0"/>
<stop offset="0.493852" stop-color="white" stop-opacity="0.12"/>
<stop offset="1" stop-color="white"/>
</radialGradient>
<radialGradient id="paint2_radial_507_159" cx="0" cy="0" r="1" gradientUnits="userSpaceOnUse" gradientTransform="translate(189.5 195) rotate(45) scale(269.408 275.772)">
<stop stop-color="white" stop-opacity="0"/>
<stop offset="0.493852" stop-color="white" stop-opacity="0.12"/>
<stop offset="1" stop-color="white"/>
</radialGradient>
<radialGradient id="paint3_radial_507_159" cx="0" cy="0" r="1" gradientUnits="userSpaceOnUse" gradientTransform="translate(189.5 195) rotate(45) scale(269.408 275.772)">
<stop stop-color="white" stop-opacity="0"/>
<stop offset="0.493852" stop-color="white" stop-opacity="0.12"/>
<stop offset="1" stop-color="white"/>
</radialGradient>
<radialGradient id="paint4_radial_507_159" cx="0" cy="0" r="1" gradientUnits="userSpaceOnUse" gradientTransform="translate(189.5 195) rotate(45) scale(269.408 275.772)">
<stop stop-color="white" stop-opacity="0"/>
<stop offset="0.493852" stop-color="white" stop-opacity="0.12"/>
<stop offset="1" stop-color="white"/>
</radialGradient>
<radialGradient id="paint5_radial_507_159" cx="0" cy="0" r="1" gradientUnits="userSpaceOnUse" gradientTransform="translate(189.5 195) rotate(45) scale(269.408 275.772)">
<stop stop-color="white" stop-opacity="0"/>
<stop offset="0.493852" stop-color="white" stop-opacity="0.12"/>
<stop offset="1" stop-color="white"/>
</radialGradient>
<radialGradient id="paint6_radial_507_159" cx="0" cy="0" r="1" gradientUnits="userSpaceOnUse" gradientTransform="translate(189.5 195) rotate(45) scale(269.408 275.772)">
<stop stop-color="white" stop-opacity="0"/>
<stop offset="0.493852" stop-color="white" stop-opacity="0.12"/>
<stop offset="1" stop-color="white"/>
</radialGradient>
<radialGradient id="paint7_radial_507_159" cx="0" cy="0" r="1" gradientUnits="userSpaceOnUse" gradientTransform="translate(189.5 195) rotate(45) scale(269.408 275.772)">
<stop stop-color="white" stop-opacity="0"/>
<stop offset="0.493852" stop-color="white" stop-opacity="0.12"/>
<stop offset="1" stop-color="white"/>
</radialGradient>
<radialGradient id="paint8_radial_507_159" cx="0" cy="0" r="1" gradientUnits="userSpaceOnUse" gradientTransform="translate(189.5 195) rotate(45) scale(269.408 275.772)">
<stop stop-color="white" stop-opacity="0"/>
<stop offset="0.493852" stop-color="white" stop-opacity="0.12"/>
<stop offset="1" stop-color="white"/>
</radialGradient>
<radialGradient id="paint9_radial_507_159" cx="0" cy="0" r="1" gradientUnits="userSpaceOnUse" gradientTransform="translate(189.5 195) rotate(45) scale(269.408 275.772)">
<stop stop-color="white" stop-opacity="0"/>
<stop offset="0.493852" stop-color="white" stop-opacity="0.12"/>
<stop offset="1" stop-color="white"/>
</radialGradient>
<radialGradient id="paint10_radial_507_159" cx="0" cy="0" r="1" gradientUnits="userSpaceOnUse" gradientTransform="translate(189.5 195) rotate(45) scale(269.408 275.772)">
<stop stop-color="white" stop-opacity="0"/>
<stop offset="0.493852" stop-color="white" stop-opacity="0.12"/>
<stop offset="1" stop-color="white"/>
</radialGradient>
<radialGradient id="paint11_radial_507_159" cx="0" cy="0" r="1" gradientUnits="userSpaceOnUse" gradientTransform="translate(189.5 195) rotate(45) scale(269.408 275.772)">
<stop stop-color="white" stop-opacity="0"/>
<stop offset="0.493852" stop-color="white" stop-opacity="0.12"/>
<stop offset="1" stop-color="white"/>
</radialGradient>
<radialGradient id="paint12_radial_507_159" cx="0" cy="0" r="1" gradientUnits="userSpaceOnUse" gradientTransform="translate(189.5 195) rotate(45) scale(269.408 275.772)">
<stop stop-color="white" stop-opacity="0"/>
<stop offset="0.493852" stop-color="white" stop-opacity="0.12"/>
<stop offset="1" stop-color="white"/>
</radialGradient>
<radialGradient id="paint13_radial_507_159" cx="0" cy="0" r="1" gradientUnits="userSpaceOnUse" gradientTransform="translate(189.5 195) rotate(45) scale(269.408 275.772)">
<stop stop-color="white" stop-opacity="0"/>
<stop offset="0.493852" stop-color="white" stop-opacity="0.12"/>
<stop offset="1" stop-color="white"/>
</radialGradient>
<radialGradient id="paint14_radial_507_159" cx="0" cy="0" r="1" gradientUnits="userSpaceOnUse" gradientTransform="translate(189.5 195) rotate(45) scale(269.408 275.772)">
<stop stop-color="white" stop-opacity="0"/>
<stop offset="0.493852" stop-color="white" stop-opacity="0.12"/>
<stop offset="1" stop-color="white"/>
</radialGradient>
<radialGradient id="paint15_radial_507_159" cx="0" cy="0" r="1" gradientUnits="userSpaceOnUse" gradientTransform="translate(189.5 195) rotate(45) scale(269.408 275.772)">
<stop stop-color="white" stop-opacity="0"/>
<stop offset="0.493852" stop-color="white" stop-opacity="0.12"/>
<stop offset="1" stop-color="white"/>
</radialGradient>
<radialGradient id="paint16_radial_507_159" cx="0" cy="0" r="1" gradientUnits="userSpaceOnUse" gradientTransform="translate(189.5 195) rotate(45) scale(269.408 275.772)">
<stop stop-color="white" stop-opacity="0"/>
<stop offset="0.493852" stop-color="white" stop-opacity="0.12"/>
<stop offset="1" stop-color="white"/>
</radialGradient>
</defs>
</svg>
