<svg width="200" height="256" viewBox="0 0 200 256" fill="none" xmlns="http://www.w3.org/2000/svg">
<g filter="url(#filter0_i_507_196)">
<path d="M0 80C0 51.9974 0 37.9961 5.44967 27.3005C10.2433 17.8924 17.8924 10.2433 27.3005 5.44967C37.9961 0 51.9974 0 80 0H120C148.003 0 162.004 0 172.7 5.44967C182.108 10.2433 189.757 17.8924 194.55 27.3005C200 37.9961 200 51.9974 200 80V156.767C200 172.566 200 180.466 197.807 187.625C195.866 193.962 192.684 199.85 188.446 204.946C183.659 210.703 177.051 215.032 163.834 223.689L143.834 236.789C127.975 247.176 120.046 252.37 111.494 254.39C103.935 256.175 96.0647 256.175 88.5061 254.39C79.9543 252.37 72.0249 247.176 56.166 236.789L36.166 223.689C22.9491 215.032 16.3406 210.703 11.5538 204.946C7.31638 199.85 4.13446 193.962 2.19308 187.625C0 180.466 0 172.566 0 156.767V80Z" fill="url(#paint0_linear_507_196)"/>
</g>
<path d="M59.8467 114.463C59.9987 114.577 60.4359 114.634 61.1582 114.634C61.8805 114.634 62.4317 114.349 62.8119 113.779C63.192 113.209 63.3821 112.277 63.3821 110.985V108.932C63.3821 107.563 63.211 106.594 62.8689 106.024C62.5648 105.416 62.0326 105.111 61.2722 105.111C60.55 105.111 60.0558 105.188 59.7896 105.34C59.8277 105.53 59.8467 105.853 59.8467 106.309V114.463ZM89.2706 127.465L99.1356 137.558C98.4514 143.488 96.5696 148.05 93.4904 151.243C90.4491 154.437 86.2294 156.033 80.8312 156.033C76.7635 156.033 73.2281 155.064 70.2249 153.125C66.3853 150.692 63.5152 146.814 61.6144 141.492L59.5616 135.904C57.9649 135.866 55.9501 135.657 53.5171 135.277C53.213 135.581 53.0609 135.999 53.0609 136.531C53.0609 137.558 54.6005 138.166 57.6798 138.356L60.9301 146.567V151.414C56.5583 154.494 50.9511 156.033 44.1083 156.033C39.2043 156.033 35.2887 155.026 32.3615 153.011C29.4343 150.996 27.9707 148.069 27.9707 144.229V90.0574C27.9707 88.3847 29.5103 86.769 32.5896 85.2104C35.6688 83.6137 39.6985 82.3402 44.6785 81.3898C49.6585 80.4014 54.6385 79.9072 59.6186 79.9072C71.0232 79.9072 79.9378 82.2452 86.3625 86.9211C93.1292 91.8251 96.5126 98.7249 96.5126 107.621C96.5126 112.715 95.068 117.086 92.1788 120.736C89.3277 124.347 85.7162 126.856 81.3444 128.263C81.3444 129.479 82.0667 130.088 83.5113 130.088C84.9939 130.088 86.9137 129.213 89.2706 127.465Z" fill="white"/>
<path d="M154.753 155.577C149.545 155.577 145.458 154.721 142.493 153.011C139.299 151.224 137.57 148.696 137.304 145.427L136.79 140.067C140.288 139.23 143.234 137.063 145.629 133.566C146.275 132.578 146.598 131.722 146.598 131C146.598 130.011 146.104 129.517 145.116 129.517H144.945C144.907 129.555 144.831 129.574 144.717 129.574C142.056 135.163 137.741 137.957 131.772 137.957C128.731 137.957 126.127 137.291 123.96 135.961C121.831 134.63 119.874 132.33 118.087 129.061H117.745C116.718 129.061 116.205 129.498 116.205 130.373C116.205 130.981 116.433 131.665 116.889 132.425C118.41 134.972 120.311 136.968 122.592 138.413C124.378 139.629 126.26 140.352 128.237 140.58L127.781 151.357C125.5 152.84 123.086 153.904 120.539 154.55C118.03 155.235 114.437 155.577 109.761 155.577C105.123 155.577 100.98 154.664 97.3303 152.84C92.8445 150.597 90.6016 147.48 90.6016 143.488C90.6016 138.508 91.59 126.21 93.5668 106.594C94.6312 96.3679 95.4865 89.221 96.1328 85.1533C100.048 81.6559 105.827 79.9072 113.468 79.9072C119.018 79.9072 123.618 80.9336 127.268 82.9865L130.404 93.4787L128.408 101.861C128.256 102.431 128.18 102.983 128.18 103.515C128.18 104.845 128.94 105.53 130.461 105.568L135.878 83.0435C137.437 82.2072 139.47 81.4849 141.98 80.8766C144.489 80.2304 147.226 79.9072 150.191 79.9072C155.741 79.9072 159.847 80.8576 162.508 82.7584C165.207 84.6211 166.804 87.7764 167.298 92.2242C167.412 93.0605 167.583 94.4481 167.811 96.3869C171.27 126.115 173 143.621 173 148.905C168.78 153.353 162.698 155.577 154.753 155.577Z" fill="white"/>
<mask id="mask0_507_196" style="mask-type:alpha" maskUnits="userSpaceOnUse" x="18" y="79" width="155" height="77">
<path d="M154.753 155.577C149.544 155.577 145.458 154.722 142.493 153.011C139.299 151.224 137.57 148.696 137.303 145.427L136.79 140.067C140.288 139.23 143.234 137.064 145.629 133.566C146.275 132.578 146.598 131.722 146.598 131C146.598 130.012 146.104 129.518 145.116 129.518H144.945C144.907 129.556 144.831 129.575 144.716 129.575C142.055 135.163 137.741 137.957 131.772 137.957C128.731 137.957 126.127 137.292 123.96 135.961C121.831 134.631 119.873 132.331 118.087 129.061H117.745C116.718 129.061 116.205 129.499 116.205 130.373C116.205 130.981 116.433 131.665 116.889 132.426C118.41 134.973 120.311 136.969 122.591 138.413C124.378 139.63 126.26 140.352 128.237 140.58L127.781 151.357C125.5 152.84 123.086 153.904 120.539 154.551C118.03 155.235 114.437 155.577 109.761 155.577C105.123 155.577 100.98 154.665 97.3302 152.84C92.8444 150.597 90.6015 147.48 90.6015 143.488C90.6015 138.508 91.5899 126.21 93.5667 106.594C94.6311 96.3681 95.4865 89.2211 96.1327 85.1535C100.048 81.6561 105.827 79.9074 113.468 79.9074C119.018 79.9074 123.618 80.9338 127.267 82.9866L130.404 93.4789L128.408 101.861C128.256 102.432 128.18 102.983 128.18 103.515C128.18 104.846 128.94 105.53 130.461 105.568L135.878 83.0436C137.437 82.2073 139.47 81.485 141.979 80.8768C144.488 80.2305 147.226 79.9074 150.191 79.9074C155.741 79.9074 159.847 80.8577 162.508 82.7585C165.207 84.6213 166.803 87.7766 167.298 92.2244C167.412 93.0607 167.583 94.4483 167.811 96.3871C171.27 126.115 173 143.621 173 148.905C168.78 153.353 162.698 155.577 154.753 155.577Z" fill="white"/>
</mask>
<g mask="url(#mask0_507_196)">
<g opacity="0.35" filter="url(#filter1_f_507_196)">
<path d="M127.724 146.035C118.965 146.035 116.37 135.898 116.167 130.829L121.641 135.695L129.548 139.345C132.59 141.575 136.482 146.035 127.724 146.035Z" fill="#6B3DD2"/>
</g>
<g opacity="0.35" filter="url(#filter2_f_507_196)">
<path d="M135.527 145.427C144.286 145.427 146.376 135.289 146.579 130.221L141.61 135.087L133.703 138.736C130.661 140.966 126.769 145.427 135.527 145.427Z" fill="#6B3DD2"/>
</g>
</g>
<defs>
<filter id="filter0_i_507_196" x="0" y="0" width="200" height="260.729" filterUnits="userSpaceOnUse" color-interpolation-filters="sRGB">
<feFlood flood-opacity="0" result="BackgroundImageFix"/>
<feBlend mode="normal" in="SourceGraphic" in2="BackgroundImageFix" result="shape"/>
<feColorMatrix in="SourceAlpha" type="matrix" values="0 0 0 0 0 0 0 0 0 0 0 0 0 0 0 0 0 0 127 0" result="hardAlpha"/>
<feOffset dy="5"/>
<feGaussianBlur stdDeviation="2.5"/>
<feComposite in2="hardAlpha" operator="arithmetic" k2="-1" k3="1"/>
<feColorMatrix type="matrix" values="0 0 0 0 1 0 0 0 0 1 0 0 0 0 1 0 0 0 0.45 0"/>
<feBlend mode="normal" in2="shape" result="effect1_innerShadow_507_196"/>
</filter>
<filter id="filter1_f_507_196" x="112.167" y="126.829" width="24.9268" height="23.2061" filterUnits="userSpaceOnUse" color-interpolation-filters="sRGB">
<feFlood flood-opacity="0" result="BackgroundImageFix"/>
<feBlend mode="normal" in="SourceGraphic" in2="BackgroundImageFix" result="shape"/>
<feGaussianBlur stdDeviation="2" result="effect1_foregroundBlur_507_196"/>
</filter>
<filter id="filter2_f_507_196" x="126.157" y="126.221" width="24.4219" height="23.2061" filterUnits="userSpaceOnUse" color-interpolation-filters="sRGB">
<feFlood flood-opacity="0" result="BackgroundImageFix"/>
<feBlend mode="normal" in="SourceGraphic" in2="BackgroundImageFix" result="shape"/>
<feGaussianBlur stdDeviation="2" result="effect1_foregroundBlur_507_196"/>
</filter>
<linearGradient id="paint0_linear_507_196" x1="100" y1="0" x2="100" y2="200" gradientUnits="userSpaceOnUse">
<stop stop-color="#9675E0"/>
<stop offset="1" stop-color="#5F2DCE"/>
</linearGradient>
</defs>
</svg>
